<svg><path d="M394.965 33.326c-50.722 1.032-111.122 5.54-142.042 52.056-23.757 34.305-31.05 76.486-36.204 116.935-15.2 23.95-52.091-1-72.726 19.697-32.259 20.355-29.673 63.668-35.743 96.749-5.988 67.01-11.296 135.924 3.895 202.082 11.386 41.46 57.947 57.109 96.701 56.667 9.584 29.606 5.08 65.516 20.063 94.733 29.607 55.375 118.786 59.05 153.555 7.61 16.936-31.735 5.856-68.942 11.685-102.717 35.602-6.545 34.43 33.934 34.364 59.075 1.232 32.854 30.654 55.608 62.205 55.973 31.706 4.538 77.24 2.603 88.755-33.84 17.794-97.768 33.238-196.955 28.028-296.67-4.411-30.602-3.944-59.93 24.405-78.29 29.863-38.445 13.443-95.87-23.731-123.106-40.418-27.133-55.52-78.81-98.54-102.741-34.182-21.855-75.26-24.674-114.67-24.213z"/></svg>